<svg width="45" height="43" viewBox="0 0 45 43" fill="none" xmlns="http://www.w3.org/2000/svg">
<path d="M44.2669 17.1039C44.4343 16.9409 44.4231 16.7553 44.3841 16.6316C44.345 16.5079 44.2446 16.3504 44.0158 16.3167L29.4371 14.1799L22.9149 0.869931C22.8089 0.656252 22.636 0.611267 22.5021 0.611267C22.3682 0.611267 22.1952 0.656252 22.0892 0.869931L15.5726 14.1799L0.999444 16.3167C0.765114 16.3504 0.670266 16.5079 0.631211 16.6316C0.592156 16.7553 0.580997 16.9409 0.748376 17.1039L11.2988 27.4674L8.81046 42.0988C8.78814 42.245 8.81604 42.363 8.90531 42.4643C8.99458 42.5711 9.13406 42.6386 9.26238 42.6386C9.33491 42.6386 9.40187 42.6217 9.4744 42.5824L22.5132 35.6715L35.552 42.5824C35.6246 42.6217 35.6971 42.6386 35.764 42.6386C35.8924 42.6386 36.0319 42.5711 36.1211 42.4643C36.2104 42.3574 36.2383 42.2393 36.216 42.0988L33.7276 27.4674L44.2781 17.1039H44.2669ZM35.8087 42.2056C35.8087 42.2056 35.764 42.2393 35.7585 42.2393L22.5076 35.2217L9.2568 42.2393C9.2568 42.2393 9.22333 42.2281 9.20101 42.1662L11.7284 27.3268L1.02176 16.8171C1.02176 16.8171 0.993865 16.789 1.00502 16.7553C1.01618 16.7215 1.02176 16.7216 1.05524 16.7159L15.8404 14.551L22.4518 1.04425C22.4686 1.01613 22.4686 1.01051 22.5021 1.01051C22.5355 1.01051 22.5411 1.01051 22.5523 1.04425L29.1637 14.5454L43.9489 16.7103C43.9824 16.7103 43.9824 16.7103 43.9991 16.7497C44.0102 16.7834 44.0047 16.789 43.9824 16.8115L33.2868 27.3212L35.8087 42.2V42.2056Z" fill="url(#paint0_linear_13_95)"/>
<defs>
<linearGradient id="paint0_linear_13_95" x1="22.2566" y1="1.44349" x2="22.931" y2="42.599" gradientUnits="userSpaceOnUse">
<stop stop-color="#FDD733"/>
<stop offset="1" stop-color="#FBC12A"/>
</linearGradient>
</defs>
</svg>
